<svg xmlns="http://www.w3.org/2000/svg" width="20" height="20" fill="none">
  <path
    fill="#c0c5cc"
    d="M9.998 5.767A4.23 4.23 0 005.765 10a4.23 4.23 0 004.233 4.233A4.23 4.23 0 0014.231 10a4.23 4.23 0 00-4.233-4.233zm0 6.984A2.76 2.76 0 017.247 10a2.76 2.76 0 012.751-2.751A2.76 2.76 0 0112.749 10a2.76 2.76 0 01-2.751 2.751zm4.406-8.144a.99.99 0 00-.989.989.99.99 0 00.989.989.988.988 0 00.915-1.37.993.993 0 00-.914-.609zM18.25 10l-.054-3.405c-.064-1.32-.365-2.493-1.33-3.46s-2.138-1.267-3.46-1.33L10 1.75c-1.14 0-2.268-.01-3.405.054-1.32.064-2.493.365-3.46 1.33s-1.267 2.138-1.33 3.46L1.75 10l.054 3.405c.064 1.32.365 2.493 1.33 3.46s2.138 1.267 3.46 1.33L10 18.25l3.405-.054c1.32-.064 2.493-.365 3.46-1.33s1.267-2.138 1.33-3.46L18.25 10zm-1.816 4.867a2.61 2.61 0 01-.623.945 2.64 2.64 0 01-.945.623c-1.086.43-3.663.334-4.867.334s-3.783.097-4.87-.332a2.62 2.62 0 01-.945-.623 2.64 2.64 0 01-.623-.945c-.43-1.088-.332-3.665-.332-4.87s-.097-3.783.332-4.87a2.62 2.62 0 01.623-.945c.29-.29.57-.473.945-.623 1.086-.43 3.665-.332 4.87-.332s3.783-.097 4.87.332c.376.15.656.332.945.623a2.64 2.64 0 01.623.945c.43 1.086.332 3.665.332 4.87s.097 3.78-.334 4.867z"
  ></path>
</svg>