<svg xmlns="http://www.w3.org/2000/svg" width="20" height="20" fill="none">
  <path
    fill="#c0c5cc"
    d="M10 18.5a8.5 8.5 0 110-17 8.5 8.5 0 110 17zm5.452-8.54a1.216 1.216 0 00-1.194-1.232 1.18 1.18 0 00-.831.352 5.816 5.816 0 00-3.2-1.056l.548-2.657 1.78.394c.035.463.43.814.892.79s.82-.412.8-.876-.388-.835-.85-.837a.85.85 0 00-.763.496l-1.986-.45c-.054-.01-.1 0-.156.032s-.08.083-.088.14l-.607 2.965A5.79 5.79 0 006.559 9.08c-.22-.224-.52-.35-.83-.352-.667.01-1.2.56-1.192 1.232a1.23 1.23 0 00.7 1.126c-.02.124-.03.25-.03.375 0 1.907 2.142 3.46 4.783 3.46s4.783-1.54 4.783-3.46a2.45 2.45 0 00-.03-.375 1.26 1.26 0 00.71-1.126zm-8.198.88c.012-.47.4-.842.867-.834s.84.394.837.864-.384.85-.852.85a.87.87 0 01-.852-.88zm4.764 2.345c-.586.61-1.7.646-2.025.646s-1.447-.05-2.025-.65c-.087-.1-.087-.234 0-.324a.21.21 0 01.314 0c.37.385 1.155.517 1.712.517s1.35-.132 1.712-.517a.21.21 0 01.314 0 .25.25 0 010 .327zm-.156-1.45c-.356.01-.683-.198-.826-.526s-.075-.7.174-.967a.87.87 0 01.957-.202.88.88 0 01.546.815.87.87 0 01-.851.88z"
  ></path>
</svg>