<svg xmlns="http://www.w3.org/2000/svg" width="20" height="20" fill="none">
  <path
    fill="#c0c5cc"
    d="M18.5 4.64a6.985 6.985 0 01-2.006.54 3.477 3.477 0 001.532-1.92 6.88 6.88 0 01-2.21.842A3.488 3.488 0 0013.27 3a3.483 3.483 0 00-3.483 3.485 4 4 0 00.086.799A9.9 9.9 0 012.69 3.637a3.46 3.46 0 00-.474 1.759c0 1.21.615 2.276 1.553 2.903a3.524 3.524 0 01-1.575-.443V7.9a3.484 3.484 0 002.793 3.42 3.69 3.69 0 01-.917.118 4.64 4.64 0 01-.658-.053 3.49 3.49 0 003.257 2.417 6.98 6.98 0 01-4.325 1.489 7.12 7.12 0 01-.842-.043 9.873 9.873 0 005.35 1.563c6.407 0 9.913-5.308 9.913-9.915 0-.15 0-.302-.01-.454a7.475 7.475 0 001.747-1.802z"
  />
</svg>